<?xml version="1.0" encoding="UTF-8" standalone="no"?>
<svg
   xmlns:dc="http://purl.org/dc/elements/1.1/"
   xmlns:cc="http://creativecommons.org/ns#"
   xmlns:rdf="http://www.w3.org/1999/02/22-rdf-syntax-ns#"
   xmlns:svg="http://www.w3.org/2000/svg"
   xmlns="http://www.w3.org/2000/svg"
   xmlns:sodipodi="http://sodipodi.sourceforge.net/DTD/sodipodi-0.dtd"
   xmlns:inkscape="http://www.inkscape.org/namespaces/inkscape"
   viewBox="0 0 300 202.77293"
   version="1.1"
   id="svg10"
   sodipodi:docname="pulumi.svg"
   inkscape:version="0.92.5 (2060ec1f9f, 2020-04-08)"
   style="fill-opacity:1">
  <metadata
     id="metadata16">
    <rdf:RDF>
      <cc:Work
         rdf:about="">
        <dc:format>image/svg+xml</dc:format>
        <dc:type
           rdf:resource="http://purl.org/dc/dcmitype/StillImage" />
        <dc:title></dc:title>
      </cc:Work>
    </rdf:RDF>
  </metadata>
  <defs
     id="defs14" />
  <sodipodi:namedview
     pagecolor="#ffffff"
     bordercolor="#666666"
     borderopacity="1"
     objecttolerance="10"
     gridtolerance="10"
     guidetolerance="10"
     inkscape:pageopacity="0"
     inkscape:pageshadow="2"
     inkscape:window-width="1742"
     inkscape:window-height="787"
     id="namedview12"
     showgrid="false"
     inkscape:zoom="0.96235294"
     inkscape:cx="312.50014"
     inkscape:cy="139.77294"
     inkscape:window-x="0"
     inkscape:window-y="0"
     inkscape:window-maximized="0"
     inkscape:current-layer="svg10"
     fit-margin-top="10"
     fit-margin-right="10"
     fit-margin-bottom="10"
     fit-margin-left="10" />
  <g
     id="g826"
     transform="translate(100.00015,10)">
    <path
       id="path2"
       d="m 17.0724,58.8697 c 3.9112,-2.2582 3.9177,-9.5691 0.0145,-16.3295 -3.9032,-6.7603 -10.23802,-10.41 -14.14923,-8.1518 -3.911214,2.2582 -3.917716,9.5692 -0.01452,16.3295 3.90319,6.7604 10.23805,10.41 14.14925,8.1518 z m 0.0234,14.4756 C 20.999,80.1057 20.9925,87.4166 17.0813,89.6748 13.17,91.933 6.83522,88.2833 2.93203,81.523 -0.971167,74.7627 -0.964667,67.4517 2.94655,65.1935 6.85776,62.9353 13.1926,66.585 17.0958,73.3453 Z m 26.6537,15.4098 c 3.9032,6.7603 3.8967,14.0709 -0.0145,16.3299 -3.9112,2.258 -10.2461,-1.392 -14.1493,-8.1523 -3.9031,-6.7603 -3.8966,-14.0712 0.0146,-16.3295 3.9112,-2.2582 10.246,1.3915 14.1492,8.1519 z M 43.7408,57.9504 c 3.9032,6.7603 3.8967,14.0713 -0.0145,16.3295 -3.9112,2.2582 -10.246,-1.3915 -14.1492,-8.1518 -3.9032,-6.7604 -3.8967,-14.0713 0.0145,-16.3295 3.9112,-2.2582 10.2461,1.3915 14.1492,8.1518 z"
       inkscape:connector-curvature="0"
       style="clip-rule:evenodd;fill-rule:evenodd" />
    <path
       id="path4"
       d="m 97.0612,50.7349 c 3.9028,-6.7603 3.8968,-14.0713 -0.0145,-16.3295 -3.9112,-2.2582 -10.246,1.3915 -14.1492,8.1519 -3.9032,6.7603 -3.8967,14.0712 0.0145,16.3295 3.9112,2.2582 10.2461,-1.3915 14.1492,-8.1519 z m 8e-4,14.4683 c 3.911,2.2582 3.918,9.5691 0.0146,16.3295 -3.9032,6.7603 -10.2381,10.41 -14.1493,8.1518 C 79.0161,87.4263 79.0096,80.1153 82.9128,73.355 86.816,66.5947 93.1508,62.945 97.062,65.2032 Z M 70.4136,80.5877 c 3.9113,2.2582 3.9178,9.5691 0.0146,16.3295 -3.9032,6.7598 -10.2381,10.4098 -14.1493,8.1518 -3.9112,-2.258 -3.9177,-9.5692 -0.0145,-16.3295 3.9032,-6.7604 10.238,-10.4101 14.1492,-8.1518 z m -0.015,-30.798 c 3.9112,2.2582 3.9177,9.5692 0.0145,16.3295 -3.9032,6.7604 -10.238,10.4101 -14.1493,8.1519 -3.9112,-2.2582 -3.9177,-9.5692 -0.0145,-16.3295 3.9032,-6.7604 10.238,-10.4101 14.1493,-8.1519 z"
       inkscape:connector-curvature="0"
       style="clip-rule:evenodd;fill-rule:evenodd" />
    <path
       id="path6"
       d="m 64.1222,8.17769 c 0,4.51641 -6.3283,8.17771 -14.1347,8.17771 -7.8064,0 -14.1347,-3.6613 -14.1347,-8.17771 C 35.8528,3.66127 42.1811,0 49.9875,0 57.7939,0 64.1222,3.66127 64.1222,8.17769 Z M 37.474,23.5464 c 0,4.5164 -6.3283,8.1777 -14.1347,8.1777 -7.8064,0 -14.13471,-3.6613 -14.13471,-8.1777 0,-4.5164 6.32831,-8.1777 14.13471,-8.1777 7.8064,0 14.1347,3.6613 14.1347,8.1777 z m 39.1965,8.1777 c 7.8064,0 14.1347,-3.6613 14.1347,-8.1777 0,-4.5164 -6.3283,-8.1777 -14.1347,-8.1777 -7.8064,0 -14.1347,3.6613 -14.1347,8.1777 0,4.5164 6.3283,8.1777 14.1347,8.1777 z m -12.5483,7.2255 c 0,4.5164 -6.3283,8.1776 -14.1347,8.1776 -7.8064,0 -14.1347,-3.6612 -14.1347,-8.1776 0,-4.5164 6.3283,-8.1777 14.1347,-8.1777 7.8064,0 14.1347,3.6613 14.1347,8.1777 z"
       inkscape:connector-curvature="0"
       style="clip-rule:evenodd;fill-rule:evenodd" />
  </g>
  <path
     d="m 119.218,125.63814 h 5.255 c 1.631,0 2.537,0.906 2.537,2.5368 v 61.0193 c 0,1.6309 -0.906,2.5369 -2.537,2.5369 h -5.255 c -1.631,0 -2.537,-0.906 -2.537,-2.5369 v -61.0193 c 0,-1.6308 0.906,-2.5368 2.537,-2.5368 z m -101.064,66.0927 c 1.631,0 2.537,-0.906 2.537,-2.5368 v -20.4304 h 10.645 c 13.5,0 21.971,-8.0634 21.971,-20.2038 0,-12.0952 -8.471,-20.2039 -21.971,-20.2039 H 12.537 c -1.631,0 -2.537,0.906 -2.537,2.5368 v 58.3013 c 0,1.6308 0.906,2.5368 2.537,2.5368 z m 2.537,-54.3602 h 9.966 c 7.61,0 11.914,4.3941 11.914,11.1892 0,6.8403 -4.304,11.2344 -11.914,11.2344 h -9.966 z m 40.227,10.0115 v 26.3647 c 0,11.5516 7.475,19.0261 18.755,19.0261 5.979,0 11.098,-2.9445 14.269,-7.248 v 3.6693 c 0,1.6308 0.906,2.5368 2.537,2.5368 h 5.3 c 1.631,0 2.537,-0.906 2.537,-2.5368 v -41.8121 c 0,-1.6308 -0.906,-2.5368 -2.537,-2.5368 h -5.3 c -1.631,0 -2.537,0.906 -2.537,2.5368 v 23.0125 c 0,7.7916 -5.617,13.2729 -12.14,13.2729 -6.252,0 -10.555,-4.4394 -10.555,-10.7814 v -25.504 c 0,-1.6308 -0.906,-2.5368 -2.537,-2.5368 h -5.255 c -1.631,0 -2.537,0.906 -2.537,2.5368 z m 77.599,0 v 26.3647 c 0,11.5516 7.474,19.0261 18.754,19.0261 5.98,0 11.099,-2.9445 14.27,-7.248 v 3.6693 c 0,1.6308 0.906,2.5368 2.537,2.5368 h 5.3 c 1.631,0 2.537,-0.906 2.537,-2.5368 v -41.8121 c 0,-1.6308 -0.906,-2.5368 -2.537,-2.5368 h -5.3 c -1.631,0 -2.537,0.906 -2.537,2.5368 v 23.0125 c 0,7.7916 -5.617,13.2729 -12.141,13.2729 -6.251,0 -10.555,-4.4394 -10.555,-10.7814 v -25.504 c 0,-1.6308 -0.906,-2.5368 -2.536,-2.5368 h -5.255 c -1.631,0 -2.537,0.906 -2.537,2.5368 z m 128.38,15.4475 v 26.41 c 0,1.6308 -0.90601,2.5368 -2.53601,2.5368 H 259.061 c -1.631,0 -2.537,-0.906 -2.537,-2.5368 v -25.504 c 0,-6.342 -3.94101,-10.7814 -9.74001,-10.7814 -5.844,0 -11.37,5.889 -11.37,13.0011 v 23.2843 c 0,1.6308 -0.906,2.5368 -2.537,2.5368 h -5.3 c -1.631,0 -2.537,-0.906 -2.537,-2.5368 v -25.504 c 0,-6.342 -3.941,-10.7814 -9.739,-10.7814 -5.572,0 -11.371,5.3454 -11.371,13.0011 v 23.2843 c 0,1.6308 -0.906,2.5368 -2.537,2.5368 H 196.093 c -1.63,0 -2.536,-0.906 -2.536,-2.5368 v -41.8573 c 0,-1.6309 0.906,-2.5369 2.536,-2.5369 h 5.29999 c 1.631,0 2.537,0.906 2.537,2.5369 v 3.5787 c 3.307,-4.3489 8.064,-7.2028 13.545,-7.2028 7.067,0 13.001,3.6693 15.946,9.7396 3.08001,-5.8891 8.78801,-9.7396 15.492,-9.7396 10.193,0 17.984,7.5199 17.98401,19.0714 z M 290,132.07094 c 0,-3.5787 -2.809,-6.342 -6.433,-6.342 -3.624,0 -6.387,2.7633 -6.387,6.342 0,3.5334 2.763,6.2967 6.387,6.2967 3.624,0 6.433,-2.7633 6.433,-6.2967 z m -1.268,15.3114 c 0,-1.6308 -0.906,-2.5368 -2.537,-2.5368 h -5.255 c -1.631,0 -2.537,0.906 -2.537,2.5368 v 41.8121 c 0,1.6308 0.906,2.5368 2.537,2.5368 h 5.255 c 1.631,0 2.537,-0.906 2.537,-2.5368 z"
     id="path8"
     inkscape:connector-curvature="0"
     style="clip-rule:evenodd;fill-rule:evenodd" />
</svg>
