<?xml version="1.0" encoding="UTF-8" standalone="no"?>
<!-- Created with Inkscape (http://www.inkscape.org/) -->

<svg
   xmlns:dc="http://purl.org/dc/elements/1.1/"
   xmlns:cc="http://creativecommons.org/ns#"
   xmlns:rdf="http://www.w3.org/1999/02/22-rdf-syntax-ns#"
   xmlns:svg="http://www.w3.org/2000/svg"
   xmlns="http://www.w3.org/2000/svg"
   xmlns:sodipodi="http://sodipodi.sourceforge.net/DTD/sodipodi-0.dtd"
   xmlns:inkscape="http://www.inkscape.org/namespaces/inkscape"
   version="1.1"
   id="svg2"
   xml:space="preserve"
   viewBox="0 0 325.33334 344"
   sodipodi:docname="terraform.svg"
   inkscape:version="0.92.5 (2060ec1f9f, 2020-04-08)"><metadata
     id="metadata8"><rdf:RDF><cc:Work
         rdf:about=""><dc:format>image/svg+xml</dc:format><dc:type
           rdf:resource="http://purl.org/dc/dcmitype/StillImage" /><dc:title></dc:title></cc:Work></rdf:RDF></metadata><defs
     id="defs6"><clipPath
       clipPathUnits="userSpaceOnUse"
       id="clipPath22"><path
         d="M 0,258 H 244 V 0 H 0 Z"
         id="path20"
         inkscape:connector-curvature="0" /></clipPath></defs><sodipodi:namedview
     pagecolor="#ffffff"
     bordercolor="#666666"
     borderopacity="1"
     objecttolerance="10"
     gridtolerance="10"
     guidetolerance="10"
     inkscape:pageopacity="0"
     inkscape:pageshadow="2"
     inkscape:window-width="810"
     inkscape:window-height="480"
     id="namedview4"
     showgrid="false"
     inkscape:zoom="0.68604651"
     inkscape:cx="162.66667"
     inkscape:cy="172"
     inkscape:window-x="0"
     inkscape:window-y="0"
     inkscape:window-maximized="0"
     inkscape:current-layer="g10" /><g
     id="g10"
     inkscape:groupmode="layer"
     inkscape:label="Terraform_VerticalLogo_Black_CMYK"
     transform="matrix(1.3333333,0,0,-1.3333333,0,344)"><g
       id="g12"
       transform="translate(35.5239,51.0576)"><path
         d="M 0,0 H -9.604 V 5.732 H 16.111 V 0 H 6.507 V -28.659 H 0 Z"
         style="fill-opacity:1;fill-rule:nonzero;stroke:none"
         id="path14"
         inkscape:connector-curvature="0" /></g><g
       id="g16"><g
         id="g18"
         clip-path="url(#clipPath22)"><g
           id="g24"
           transform="translate(53.5198,37.6318)"><path
             d="M 0,0 H 8.004 V 1.24 C 8.004,3.615 7.281,5.268 4.183,5.268 1.084,5.268 0,3.615 0,1.24 Z m 4.906,-10.585 c 2.427,0 4.957,0.361 7.693,1.188 l 0.982,-4.751 c -2.841,-1.085 -6.248,-1.602 -9.244,-1.602 -7.9,0 -10.637,3.667 -10.637,9.708 V 0.62 c 0,5.318 2.375,9.811 10.431,9.811 8.055,0 9.863,-4.699 9.863,-10.121 V -5.061 H 0 v -1.291 c 0,-3.045 1.084,-4.233 4.906,-4.233"
             style="fill-opacity:1;fill-rule:nonzero;stroke:none"
             id="path26"
             inkscape:connector-curvature="0" /></g><g
           id="g28"
           transform="translate(84.3457,42.2793)"><path
             d="M 0,0 C -2.427,-1.084 -4.389,-2.22 -6.661,-3.667 V -19.88 H -12.96 V 5.267 h 5.318 l 0.413,-2.788 c 1.395,0.929 4.389,2.685 6.61,3.305 z"
             style="fill-opacity:1;fill-rule:nonzero;stroke:none"
             id="path30"
             inkscape:connector-curvature="0" /></g><g
           id="g32"
           transform="translate(99.7327,42.2793)"><path
             d="M 0,0 C -2.427,-1.084 -4.389,-2.22 -6.661,-3.667 V -19.88 h -6.3 V 5.267 h 5.319 l 0.413,-2.788 c 1.395,0.929 4.389,2.685 6.61,3.305 z"
             style="fill-opacity:1;fill-rule:nonzero;stroke:none"
             id="path34"
             inkscape:connector-curvature="0" /></g><g
           id="g36"
           transform="translate(114.5002,31.9004)"><path
             d="m 0,0 h -4.647 c -2.066,0 -2.634,-0.568 -2.634,-2.479 0,-1.755 0.568,-2.53 2.53,-2.53 1.859,0 3.563,0.62 4.751,1.291 z M 6.3,-9.501 H 1.136 l -0.465,1.704 c -2.272,-1.498 -4.957,-2.221 -7.487,-2.221 -4.596,0 -6.558,3.15 -6.558,7.488 0,5.112 2.22,7.074 7.332,7.074 H 0 v 2.634 c 0,2.788 -0.774,3.769 -4.802,3.769 -2.273,0 -4.751,-0.31 -6.971,-0.775 l -0.775,4.803 c 2.375,0.723 5.835,1.188 8.624,1.188 7.9,0 10.224,-2.789 10.224,-9.089 z"
             style="fill-opacity:1;fill-rule:nonzero;stroke:none"
             id="path38"
             inkscape:connector-curvature="0" /></g><g
           id="g40"
           transform="translate(140.1631,53.2783)"><path
             d="m 0,0 c -1.187,0.258 -2.582,0.413 -3.614,0.413 -2.479,0 -2.841,-1.084 -2.841,-2.995 v -3.15 h 6.403 l -0.361,-5.009 h -6.042 v -20.138 h -6.299 v 20.138 h -4.028 v 5.009 h 4.028 v 3.511 c 0,5.216 2.427,7.798 8.004,7.798 1.962,0 3.769,-0.259 5.421,-0.723 z"
             style="fill-opacity:1;fill-rule:nonzero;stroke:none"
             id="path42"
             inkscape:connector-curvature="0" /></g><g
           id="g44"
           transform="translate(152.4517,42.6929)"><path
             d="m 0,0 c -3.356,0 -4.647,-1.498 -4.647,-4.338 v -6.765 c 0,-2.839 1.291,-4.337 4.647,-4.337 3.356,0 4.647,1.498 4.647,4.337 v 6.765 C 4.647,-1.498 3.356,0 0,0 m 0,-20.811 c -8.624,0 -10.947,4.751 -10.947,9.915 v 6.352 c 0,5.163 2.323,9.914 10.947,9.914 8.624,0 10.947,-4.751 10.947,-9.914 v -6.352 c 0,-5.164 -2.323,-9.915 -10.947,-9.915"
             style="fill-opacity:1;fill-rule:nonzero;stroke:none"
             id="path46"
             inkscape:connector-curvature="0" /></g><g
           id="g48"
           transform="translate(179.6113,42.2793)"><path
             d="M 0,0 C -2.427,-1.084 -4.389,-2.22 -6.661,-3.667 V -19.88 h -6.3 V 5.267 h 5.319 l 0.413,-2.788 c 1.394,0.929 4.389,2.685 6.61,3.305 z"
             style="fill-opacity:1;fill-rule:nonzero;stroke:none"
             id="path50"
             inkscape:connector-curvature="0" /></g><g
           id="g52"
           transform="translate(196.9092,22.3989)"><path
             d="m 0,0 v 17.557 c 0,1.342 -0.568,2.014 -2.014,2.014 -1.549,0 -4.286,-0.929 -6.558,-2.117 V 0 h -6.3 v 25.147 h 4.803 L -9.45,23.03 c 3.15,1.55 7.126,2.634 10.069,2.634 2.427,0 3.925,-0.981 4.751,-2.685 3.047,1.549 7.074,2.685 10.121,2.685 4.183,0 5.68,-2.943 5.68,-7.436 V 0 h -6.299 v 17.557 c 0,1.342 -0.568,2.014 -2.014,2.014 -1.55,0 -4.596,-0.982 -6.558,-2.117 L 6.3,0 Z"
             style="fill-opacity:1;fill-rule:nonzero;stroke:none"
             id="path54"
             inkscape:connector-curvature="0" /></g><g
           id="g56"
           transform="translate(91.3701,67.1343)"><path
             d="m 0,0 c 0.573,-0.121 1.306,-0.224 1.932,-0.224 0.787,0 1.091,0.361 1.091,1.117 V 3.847 C 3.023,4.534 2.755,4.912 1.95,4.912 1.234,4.912 0.465,4.569 0,4.156 Z M 5.206,0.944 C 5.206,-0.911 4.347,-2.01 2.325,-2.01 1.556,-2.01 0.68,-1.907 0,-1.77 V -5.188 L -2.182,-5.514 V 6.527 h 1.735 l 0.215,-0.704 c 0.769,0.532 1.663,0.876 2.754,0.876 1.753,0 2.684,-0.997 2.684,-2.903 z m -8.725,3.831 c -0.84,-0.361 -1.52,-0.739 -2.307,-1.22 v -5.393 h -2.183 v 8.365 h 1.843 l 0.143,-0.928 c 0.483,0.31 1.52,0.894 2.29,1.1 z m -9.937,0.137 c -1.163,0 -1.61,-0.498 -1.61,-1.443 v -2.25 c 0,-0.945 0.447,-1.443 1.61,-1.443 1.163,0 1.61,0.498 1.61,1.443 v 2.25 c 0,0.945 -0.447,1.443 -1.61,1.443 m 0,-6.922 c -2.988,0 -3.793,1.58 -3.793,3.298 v 2.113 c 0,1.717 0.805,3.298 3.793,3.298 2.987,0 3.792,-1.581 3.792,-3.298 V 1.288 c 0,-1.718 -0.805,-3.298 -3.792,-3.298 m -12.299,8.468 c 0,2.096 1.27,3.315 4.239,3.315 1.11,0 2.255,-0.137 3.238,-0.377 l -0.25,-1.873 c -0.966,0.172 -2.093,0.292 -2.916,0.292 C -23,7.815 -23.501,7.3 -23.501,6.08 V 1.683 c 0,-1.22 0.501,-1.735 2.057,-1.735 0.823,0 1.95,0.12 2.916,0.292 l 0.25,-1.872 c -0.983,-0.241 -2.128,-0.378 -3.238,-0.378 -2.969,0 -4.239,1.219 -4.239,3.315 z m -3.926,0.069 h 2.183 v -8.365 h -2.183 z m 0,3.23 h 2.183 V 7.712 h -2.183 z m -4.016,-11.595 v 5.84 c 0,0.447 -0.196,0.67 -0.697,0.67 -0.537,0 -1.485,-0.309 -2.272,-0.704 v -5.806 h -2.183 V 9.92 l 2.183,-0.325 V 5.891 c 0.966,0.481 2.254,0.808 3.184,0.808 1.449,0 1.968,-0.979 1.968,-2.474 v -6.063 z m -9.991,-0.172 c -0.93,0 -2.2,0.206 -3.005,0.481 l 0.304,1.597 c 0.733,-0.206 1.7,-0.36 2.594,-0.36 0.966,0 1.109,0.206 1.109,0.841 0,0.516 -0.107,0.773 -1.52,1.1 -2.129,0.498 -2.38,1.013 -2.38,2.628 0,1.683 0.77,2.422 3.256,2.422 0.805,0 1.861,-0.103 2.612,-0.292 l -0.215,-1.666 c -0.661,0.12 -1.717,0.24 -2.397,0.24 -0.948,0 -1.109,-0.206 -1.109,-0.721 0,-0.67 0.054,-0.722 1.234,-1.014 2.433,-0.618 2.666,-0.928 2.666,-2.645 0,-1.615 -0.519,-2.611 -3.149,-2.611 m -6.754,3.332 h -1.61 c -0.715,0 -0.912,-0.189 -0.912,-0.824 0,-0.584 0.197,-0.842 0.877,-0.842 0.644,0 1.234,0.206 1.645,0.429 z m 2.183,-3.16 h -1.789 l -0.161,0.567 c -0.787,-0.499 -1.718,-0.739 -2.594,-0.739 -1.592,0 -2.272,1.048 -2.272,2.49 0,1.701 0.769,2.354 2.54,2.354 h 2.093 V 3.71 c 0,0.927 -0.268,1.253 -1.663,1.253 -0.788,0 -1.646,-0.103 -2.415,-0.257 l -0.269,1.597 c 0.823,0.241 2.022,0.395 2.988,0.395 2.737,0 3.542,-0.927 3.542,-3.023 z m -10.519,0 v 4.826 h -4.418 V -1.838 H -65.45 V 9.757 h 2.254 V 4.895 h 4.418 v 4.862 h 2.254 V -1.838 Z"
             style="fill-opacity:1;fill-rule:nonzero;stroke:none"
             id="path58"
             inkscape:connector-curvature="0" /></g><g
           id="g60"
           transform="translate(102.5845,211.0928)"><path
             d="M 0,0 38.829,-22.419 V -67.257 L 0,-44.838 Z"
             style="fill-opacity:1;fill-rule:evenodd;stroke:none"
             id="path62"
             inkscape:connector-curvature="0" /></g><g
           id="g64"
           transform="translate(145.668,188.6724)"><path
             d="m 0,0 v -44.835 l 38.832,22.416 v 44.841 z"
             style="fill-opacity:1;fill-rule:evenodd;stroke:none"
             id="path66"
             inkscape:connector-curvature="0" /></g><g
           id="g68"
           transform="translate(59.5,236.1177)"><path
             d="m 0,0 v -44.833 l 38.829,-22.421 v 44.835 z"
             style="fill-opacity:1;fill-rule:evenodd;stroke:none"
             id="path70"
             inkscape:connector-curvature="0" /></g><g
           id="g72"
           transform="translate(102.5852,116.5063)"><path
             d="m 0,0 38.827,-22.421 v 44.539 0.299 L 0,44.835 Z"
             style="fill-opacity:1;fill-rule:evenodd;stroke:none"
             id="path74"
             inkscape:connector-curvature="0" /></g></g></g></g></svg>