<svg class="devicon-openapi-plain-wordmark" space="preserve" version="1.1" viewBox="0 0 120.97 137.52" xmlns="http://www.w3.org/2000/svg">
<style type="text/css">
	.st0{fill:#93D500;}
	.st1{fill:#4D5A31;}
	.st2{fill:#6BA43A;}
	.st3{fill:#424143;}</style>
<g transform="translate(1.9523 -.99975)">
<path class="st0" d="m32.601 67.409h-29.557c5e-3 0.144 9e-3 0.289 0.017 0.433 0.012 0.278 0.032 0.555 0.049 0.833 8e-3 0.119 0.013 0.238 0.022 0.356 0.023 0.322 0.051 0.642 0.08 0.962 7e-3 0.073 0.013 0.145 0.02 0.215 0.034 0.356 0.073 0.712 0.115 1.065 2e-3 0.035 6e-3 0.069 0.011 0.103 0.046 0.382 0.095 0.764 0.151 1.144 0 4e-3 1e-3 0.01 3e-3 0.014 0.339 2.356 0.848 4.69 1.527 6.984 3e-3 0.01 7e-3 0.019 9e-3 0.029 0.106 0.361 0.218 0.72 0.333 1.077 7e-3 0.021 0.014 0.042 0.02 0.063s0.013 0.042 0.02 0.063c0.105 0.323 0.215 0.645 0.325 0.968 0.029 0.081 0.056 0.163 0.086 0.244 0.099 0.279 0.2 0.558 0.304 0.837 0.048 0.126 0.096 0.251 0.143 0.378 0.09 0.231 0.179 0.46 0.27 0.691 0.069 0.173 0.141 0.346 0.213 0.519 0.074 0.18 0.15 0.359 0.226 0.54 0.094 0.22 0.192 0.439 0.289 0.658 0.058 0.131 0.117 0.261 0.175 0.391 0.12 0.263 0.244 0.526 0.368 0.787 0.041 0.084 0.08 0.168 0.122 0.252 0.145 0.301 0.293 0.599 0.443 0.895 0.025 0.046 0.047 0.091 0.07 0.137 0.169 0.328 0.341 0.656 0.518 0.981 8e-3 0.014 0.016 0.028 0.023 0.044 0.037 0.068 0.078 0.133 0.115 0.2l25.243-15.207 0.093-0.056c-0.996-2.1-1.616-4.332-1.846-6.6z" fill="#93d500"/>
<polygon class="st0" points="4.44 80.962 4.448 80.989 5.402 80.689" fill="#93d500"/>
<path class="st1" d="m39.865 80.977-20.89 20.891c0.107 0.1 0.213 0.201 0.323 0.298 0.194 0.176 0.392 0.351 0.589 0.523 0.102 0.091 0.202 0.181 0.304 0.269 0.236 0.204 0.474 0.403 0.711 0.602 0.065 0.054 0.128 0.107 0.192 0.16 0.267 0.221 0.539 0.438 0.812 0.654 0.035 0.027 0.07 0.055 0.105 0.083 0.295 0.232 0.593 0.458 0.894 0.686 0.013 8e-3 0.024 0.016 0.034 0.025 1.254 0.937 2.554 1.815 3.895 2.633 0.046 0.029 0.092 0.056 0.139 0.085 0.255 0.153 0.51 0.304 0.767 0.453 0.157 0.09 0.314 0.179 0.471 0.268 0.148 0.086 0.296 0.168 0.446 0.251 0.27 0.148 0.542 0.295 0.814 0.439 0.037 0.02 0.075 0.04 0.113 0.06 0.757 0.396 1.527 0.764 2.303 1.118l0.739-1.794 10.469-25.431 0.039-0.094c-1.142-0.609-2.238-1.334-3.269-2.179z" fill="#4d5a31"/>
<path class="st2" d="m37.697 78.904c-0.225-0.25-0.439-0.506-0.649-0.765-0.186-0.23-0.366-0.462-0.54-0.697-0.199-0.27-0.394-0.541-0.578-0.818-0.186-0.278-0.368-0.558-0.54-0.843l-25.276 15.225c0.388 0.645 0.793 1.273 1.206 1.894 0.014 0.021 0.027 0.044 0.041 0.065 5e-3 8e-3 0.01 0.015 0.015 0.023 0.014 0.02 0.026 0.042 0.04 0.063 1e-3 2e-3 3e-3 4e-3 4e-3 6e-3 0.033 0.05 0.067 0.098 0.101 0.148l6e-3 9e-3c1e-3 1e-3 2e-3 3e-3 3e-3 4e-3 0.439 0.649 0.89 1.288 1.355 1.91 0.01 0.013 0.021 0.027 0.031 0.04l0.03 0.039c0.202 0.268 0.405 0.535 0.614 0.8 0.027 0.035 0.054 0.069 0.083 0.103 0.214 0.274 0.432 0.544 0.654 0.812 0.052 0.063 0.106 0.127 0.158 0.191 0.2 0.239 0.4 0.477 0.604 0.713 0.087 0.101 0.178 0.202 0.266 0.302 0.174 0.198 0.346 0.395 0.524 0.59 0.097 0.107 0.198 0.215 0.297 0.322 0.045 0.049 0.089 0.097 0.135 0.146 0.13 0.14 0.259 0.28 0.39 0.419 0.052 0.055 0.107 0.109 0.16 0.164 0.23 0.24 0.462 0.48 0.699 0.716l20.85-20.85c-0.238-0.239-0.462-0.484-0.683-0.731z" fill="#6ba43a"/>
<path class="st1" d="m65.334 80.966c-0.229 0.185-0.461 0.366-0.697 0.54l0.052 0.087 15.202 25.235c0.704-0.46 1.4-0.934 2.08-1.432 1.471-1.085 2.895-2.261 4.267-3.527l-20.822-20.821z" fill="#4d5a31"/>
<path class="st0" d="m77.97 108.03c0.011-6e-3 0.023-0.013 0.034-0.019l-1e-3 -1e-3c-0.011 7e-3 -0.022 0.013-0.033 0.02z" fill="#93d500"/>
<polygon class="st0" points="77.955 108.04 77.956 108.04 77.956 108.04" fill="#93d500"/>
<path class="st0" d="m78.003 108.01c0.067-0.036 0.134-0.071 0.2-0.11l-4e-3 -7e-3c-0.066 0.039-0.131 0.078-0.196 0.117z" fill="#93d500"/>
<polygon class="st0" points="77.961 108.04 77.97 108.03" fill="#93d500"/>
<polygon class="st0" points="77.955 108.04 77.956 108.04 77.919 107.98" fill="#93d500"/>
<path class="st0" d="m77.97 108.03c0.012-6e-3 0.023-0.012 0.034-0.018-0.011 5e-3 -0.023 0.012-0.034 0.018z" fill="#93d500"/>
<polygon class="st0" points="77.951 108.04 77.942 108.05 77.951 108.04" fill="#93d500"/>
<polygon class="st0" points="77.951 108.04 77.951 108.04 77.956 108.04 77.955 108.04" fill="#93d500"/>
<path class="st0" d="m77.961 108.04-6e-3 3e-3c5e-3 -3e-3 0.01-5e-3 0.015-8e-3v-1e-3c-3e-3 3e-3 -6e-3 4e-3 -9e-3 6e-3z" fill="#93d500"/>
<path class="st0" d="m78.004 108.01c0.066-0.039 0.133-0.072 0.198-0.112-0.065 0.04-0.132 0.074-0.198 0.112z" fill="#93d500"/>
<polygon class="st0" points="78.202 107.9 78.198 107.89" fill="#93d500"/>
<polygon class="st0" points="77.934 108.05 77.935 108.05 77.936 108.05" fill="#93d500"/>
<polygon class="st0" points="77.942 108.05 77.936 108.05 77.942 108.05 77.942 108.05" fill="#93d500"/>
<path class="st0" d="m77.682 107.04-0.516-0.856-14.19-23.555c-0.287 0.173-0.581 0.329-0.874 0.487-0.296 0.159-0.594 0.308-0.896 0.451-2.726 1.293-5.677 1.953-8.632 1.953-1.936 0-3.871-0.28-5.742-0.838-0.319-0.095-0.63-0.22-0.945-0.332-0.315-0.111-0.634-0.207-0.944-0.335l-10.463 25.412-0.41 0.996-0.351 0.853-2e-3 4e-3c0.027 0.011 0.055 0.02 0.082 0.031 0.029 0.012 0.057 0.021 0.086 0.033h1e-3c1e-3 0 2e-3 1e-3 2e-3 1e-3 7e-3 3e-3 0.014 5e-3 0.02 8e-3 0.247 0.101 0.496 0.188 0.744 0.285 0.311 0.121 0.622 0.244 0.934 0.358 0.159 0.058 0.317 0.126 0.476 0.182h1e-3c3.278 1.158 6.67 1.968 10.119 2.422 0.135 0.016 0.269 0.035 0.404 0.054 0.141 0.016 0.283 0.03 0.424 0.046 0.266 0.03 0.531 0.061 0.798 0.087 0.066 5e-3 0.132 0.011 0.198 0.017 0.327 0.031 0.654 0.059 0.979 0.082 0.111 8e-3 0.223 0.013 0.333 0.021 0.287 0.019 0.572 0.037 0.858 0.05 0.175 0.01 0.35 0.015 0.526 0.021 0.227 8e-3 0.453 0.017 0.682 0.024 0.327 8e-3 0.657 0.011 0.986 0.012 0.078 0 0.155 2e-3 0.232 3e-3 2.755 0 5.509-0.229 8.233-0.686 0.046-7e-3 0.091-0.015 0.138-0.021 0.288-0.05 0.576-0.104 0.864-0.157 0.164-0.032 0.329-0.063 0.491-0.095 0.168-0.035 0.337-0.07 0.505-0.106 0.281-0.059 0.561-0.12 0.842-0.185 0.05-0.011 0.101-0.021 0.152-0.035 4.141-0.965 8.14-2.459 11.897-4.436l1e-3 -1e-3c0.246-0.13 0.486-0.278 0.731-0.411 0.292-0.16 0.582-0.325 0.872-0.491 0.201-0.115 0.404-0.221 0.603-0.34l1e-3 -1e-3c2e-3 -1e-3 4e-3 -3e-3 6e-3 -4e-3h1e-3c3e-3 -2e-3 6e-3 -3e-3 9e-3 -5e-3 2e-3 -1e-3 3e-3 -2e-3 4e-3 -3e-3l-0.037-0.063 0.037 0.063 6e-3 -3e-3c3e-3 -2e-3 6e-3 -3e-3 9e-3 -5e-3 0.011-7e-3 0.022-0.013 0.033-0.02l0.195-0.117z" fill="#93d500"/>
<path class="st0" d="m39.876 49.852c0.23-0.186 0.462-0.366 0.697-0.54l-0.052-0.087-15.201-25.235c-0.706 0.461-1.404 0.936-2.085 1.436-1.47 1.082-2.893 2.257-4.262 3.522l20.822 20.822z" fill="#93d500"/>
<path class="st1" d="m17.53 30.334c-0.237 0.237-0.461 0.482-0.692 0.722s-0.466 0.479-0.692 0.723c-1.538 1.665-2.944 3.409-4.212 5.22-0.061 0.085-0.122 0.174-0.182 0.261-0.143 0.208-0.284 0.416-0.423 0.625-0.145 0.217-0.289 0.437-0.429 0.656-0.053 0.08-0.105 0.161-0.156 0.241-4.789 7.513-7.355 16.034-7.7 24.627-0.013 0.333-0.02 0.667-0.027 1-6e-3 0.333-0.017 0.667-0.017 1h29.488c0-0.334 0.031-0.666 0.048-1s0.022-0.668 0.055-1c0.381-3.84 1.863-7.589 4.447-10.739 0.21-0.256 0.447-0.496 0.672-0.743 0.224-0.247 0.432-0.504 0.671-0.742z" fill="#4d5a31"/>
<path class="st1" d="m78.373 23.014c-0.04-0.025-0.082-0.049-0.122-0.073-0.259-0.159-0.521-0.312-0.783-0.465-0.152-0.088-0.304-0.173-0.457-0.26-0.154-0.086-0.306-0.172-0.461-0.256-0.266-0.146-0.533-0.29-0.801-0.432-0.042-0.021-0.083-0.044-0.126-0.066-1.729-0.904-3.505-1.7-5.318-2.391-0.046-0.019-0.094-0.037-0.141-0.054-0.395-0.148-0.791-0.295-1.19-0.433-3.221-1.125-6.552-1.914-9.936-2.358-0.138-0.019-0.277-0.038-0.415-0.056-0.139-0.017-0.277-0.031-0.415-0.046-0.267-0.031-0.533-0.061-0.801-0.087-0.074-7e-3 -0.149-0.012-0.224-0.02-0.317-0.029-0.636-0.057-0.953-0.08-0.123-9e-3 -0.248-0.016-0.371-0.023-0.272-0.018-0.547-0.037-0.819-0.049-0.146-8e-3 -0.29-0.012-0.434-0.017l-1e-3 29.444v0.115c1.517 0.157 3.02 0.48 4.478 0.975l21.754-21.754c-0.807-0.559-1.624-1.103-2.464-1.614z" fill="#4d5a31"/>
<polygon class="st2" points="27.529 23.781 27.013 22.924" fill="#6ba43a"/>
<polygon class="st2" points="27.01 22.919 27.013 22.924" fill="#6ba43a"/>
<path class="st2" d="m51.606 15.825c-0.333 7e-3 -0.667 8e-3 -1 0.021-2.086 0.084-4.168 0.297-6.233 0.643-0.045 8e-3 -0.09 0.015-0.136 0.023-0.29 0.05-0.577 0.103-0.865 0.157-0.163 0.031-0.327 0.061-0.49 0.094-0.17 0.034-0.339 0.069-0.508 0.106-0.28 0.058-0.56 0.119-0.84 0.184-0.051 0.011-0.101 0.023-0.153 0.034-4.141 0.966-8.142 2.461-11.898 4.438h-1e-3c-0.245 0.13-0.484 0.277-0.728 0.411-0.292 0.16-0.582 0.325-0.872 0.491-0.215 0.124-0.434 0.238-0.648 0.366-2e-3 1e-3 -5e-3 3e-3 -7e-3 4e-3h-1e-3c-0.015 9e-3 -0.03 0.017-0.045 0.026-0.056 0.034-0.114 0.062-0.17 0.096l3e-3 5e-3 0.516 0.857 14.705 24.412c0.287-0.173 0.581-0.33 0.874-0.487 0.295-0.159 0.594-0.308 0.895-0.451 2.1-1 4.332-1.62 6.601-1.85 0.333-0.034 0.666-0.062 1-0.079 0.333-0.017 0.666-0.034 1-0.034l1e-3 -29.487c-0.334-1e-3 -0.667 0.013-1 0.02z" fill="#6ba43a"/>
<path class="st1" d="m102.15 62.971c-0.014-0.265-0.03-0.529-0.048-0.795-8e-3 -0.132-0.015-0.263-0.026-0.397-0.022-0.311-0.048-0.623-0.077-0.934-6e-3 -0.081-0.014-0.161-0.021-0.242-0.034-0.348-0.071-0.696-0.111-1.043-4e-3 -0.028-7e-3 -0.056-0.01-0.084-2e-3 -0.013-3e-3 -0.027-5e-3 -0.04-0.046-0.375-0.096-0.75-0.149-1.124-1e-3 -0.011-2e-3 -0.025-5e-3 -0.035-0.339-2.351-0.847-4.681-1.524-6.972-5e-3 -0.016-9e-3 -0.03-0.014-0.044-0.107-0.356-0.216-0.71-0.328-1.063-0.015-0.046-0.031-0.093-0.045-0.14-0.105-0.319-0.211-0.636-0.321-0.954-0.031-0.085-0.061-0.171-0.091-0.258-0.097-0.275-0.197-0.549-0.299-0.823-0.049-0.131-0.099-0.261-0.15-0.391-0.086-0.227-0.175-0.454-0.265-0.678-0.072-0.18-0.144-0.357-0.218-0.534-0.072-0.176-0.146-0.35-0.22-0.526-0.097-0.224-0.195-0.448-0.294-0.671-0.056-0.125-0.112-0.252-0.17-0.378-0.122-0.266-0.247-0.532-0.373-0.797-0.039-0.08-0.077-0.162-0.116-0.242-0.147-0.303-0.296-0.606-0.448-0.906-0.022-0.041-0.043-0.083-0.065-0.125-0.17-0.331-0.344-0.663-0.521-0.99-7e-3 -0.011-0.012-0.024-0.019-0.035-0.859-1.58-1.802-3.108-2.822-4.578l-21.763 21.759c0.495 1.459 0.817 2.961 0.974 4.477h29.56c-5e-3 -0.146-9e-3 -0.292-0.016-0.437z" fill="#4d5a31"/>
<path class="st2" d="m72.722 65.408c0 0.334-0.031 0.666-0.048 1-0.016 0.334-0.022 0.668-0.055 1-0.381 3.84-1.863 7.59-4.446 10.74-0.21 0.256-0.447 0.496-0.672 0.743-0.224 0.247-0.432 0.504-0.671 0.742l20.851 20.85c0.237-0.237 0.46-0.482 0.691-0.723s0.466-0.479 0.691-0.723c1.543-1.671 2.953-3.419 4.224-5.236 0.051-0.072 0.099-0.143 0.148-0.214 0.155-0.223 0.306-0.448 0.458-0.673 0.133-0.201 0.266-0.402 0.395-0.605 0.064-0.097 0.128-0.198 0.19-0.295 4.782-7.509 7.341-16.021 7.685-24.607 0.013-0.333 0.02-0.667 0.027-1s0.017-0.666 0.017-1h-29.485z" fill="#6ba43a"/>
<path class="st3" d="m110.97 7.046c-5.395-5.395-14.142-5.395-19.536 0-4.304 4.303-5.164 10.736-2.601 15.902l-30.091 30.092c-5.166-2.562-11.599-1.703-15.903 2.6-5.395 5.395-5.394 14.142 0 19.537 5.396 5.395 14.143 5.393 19.538-1e-3 4.303-4.303 5.162-10.736 2.599-15.903l30.091-30.091c5.167 2.562 11.599 1.703 15.902-2.601 5.396-5.393 5.396-14.14 1e-3 -19.535z" fill="#424143"/>
</g>
<g transform="matrix(.4019 0 0 .4019 -47.175 105.33)" fill="#424143">
<path class="st3" d="m117.38 54.729c0-14.783 10.811-25.374 25.668-25.374 14.782 0 25.594 10.591 25.594 25.374 0 14.782-10.811 25.375-25.594 25.375-14.856-1e-3 -25.668-10.593-25.668-25.375zm40.525 0c0-9.194-5.81-16.107-14.856-16.107-9.121 0-14.931 6.913-14.931 16.107 0 9.119 5.81 16.107 14.931 16.107 9.045 0 14.856-6.988 14.856-16.107z"/>
<path class="st3" d="m174.15 79.22v-49.056h22.948c10.663 0 16.474 7.207 16.474 15.812 0 8.531-5.885 15.74-16.474 15.74h-12.504v17.504zm28.758-33.244c0-4.119-3.162-6.619-7.282-6.619h-11.031v13.165h11.031c4.12 0 7.282-2.5 7.282-6.546z"/>
<path class="st3" d="m218.28 79.22v-49.056h34.715v9.193h-24.27v10.297h23.756v9.194h-23.756v11.179h24.27v9.194z"/>
<path class="st3" d="m293.15 79.22-23.386-31.993v31.993h-10.446v-49.056h10.739l22.726 30.817v-30.817h10.444v49.056z"/>
<path class="st3" d="m347.42 79.22-3.09-8.311h-21.034l-3.089 8.311h-11.841l18.902-49.056h13.094l18.899 49.056zm-13.607-38.612-7.648 21.108h15.299z"/>
<path class="st3" d="m361.98 79.22v-49.056h22.947c10.663 0 16.474 7.207 16.474 15.812 0 8.531-5.886 15.74-16.474 15.74h-12.504v17.504zm28.758-33.244c0-4.119-3.162-6.619-7.282-6.619h-11.032v13.165h11.032c4.119 0 7.282-2.5 7.282-6.546z"/>
<path class="st3" d="m406.11 79.22v-49.056h10.445v49.056z"/>
</g>
</svg>
